HIERARCHY
ROOT Hips
{
	OFFSET 0.00000 0.00000 0.00000
	CHANNELS 6 Xposition Yposition Zposition Zrotation Yrotation Xrotation 
	JOINT LHipJoint
	{
		OFFSET 0 0 0
		CHANNELS 3 Zrotation Yrotation Xrotation
		JOINT LeftUpLeg
		{
			OFFSET 1.57358 -1.76629 0.73362
			CHANNELS 3 Zrotation Yrotation Xrotation
			JOINT LeftLeg
			{
				OFFSET 2.40600 -6.61045 0.00000
				CHANNELS 3 Zrotation Yrotation Xrotation
				JOINT LeftFoot
				{
					OFFSET 2.66168 -7.31291 0.00000
					CHANNELS 3 Zrotation Yrotation Xrotation
					JOINT LeftToeBase
					{
						OFFSET 0.20870 -0.57341 2.12506
						CHANNELS 3 Zrotation Yrotation Xrotation
						End Site
						{
							OFFSET 0.00000 -0.00000 1.10557
						}
					}
				}
			}
		}
	}
	JOINT RHipJoint
	{
		OFFSET 0 0 0
		CHANNELS 3 Zrotation Yrotation Xrotation
		JOINT RightUpLeg
		{
			OFFSET -1.49299 -1.76629 0.73362
			CHANNELS 3 Zrotation Yrotation Xrotation
			JOINT RightLeg
			{
				OFFSET -2.43663 -6.69460 0.00000
				CHANNELS 3 Zrotation Yrotation Xrotation
				JOINT RightFoot
				{
					OFFSET -2.62959 -7.22474 0.00000
					CHANNELS 3 Zrotation Yrotation Xrotation
					JOINT RightToeBase
					{
						OFFSET -0.25784 -0.70841 2.21862
						CHANNELS 3 Zrotation Yrotation Xrotation
						End Site
						{
							OFFSET -0.00000 -0.00000 1.16452
						}
					}
				}
			}
		}
	}
	JOINT LowerBack
	{
		OFFSET 0 0 0
		CHANNELS 3 Zrotation Yrotation Xrotation
		JOINT Spine
		{
			OFFSET -0.00034 2.12399 -0.25450
			CHANNELS 3 Zrotation Yrotation Xrotation
			JOINT Spine1
			{
				OFFSET 0.05594 2.14379 -0.03318
				CHANNELS 3 Zrotation Yrotation Xrotation
				JOINT Neck
				{
					OFFSET 0 0 0
					CHANNELS 3 Zrotation Yrotation Xrotation
					JOINT Neck1
					{
						OFFSET -0.09835 1.62725 0.24211
						CHANNELS 3 Zrotation Yrotation Xrotation
						JOINT Head
						{
							OFFSET 0.10849 1.66041 -0.22648
							CHANNELS 3 Zrotation Yrotation Xrotation
							End Site
							{
								OFFSET 0.04385 1.68267 -0.10541
							}
						}
					}
				}
				JOINT LeftShoulder
				{
					OFFSET 0 0 0
					CHANNELS 3 Zrotation Yrotation Xrotation
					JOINT LeftArm
					{
						OFFSET 3.29108 0.79398 -0.68179
						CHANNELS 3 Zrotation Yrotation Xrotation
						JOINT LeftForeArm
						{
							OFFSET 5.15310 -0.00000 -0.00000
							CHANNELS 3 Zrotation Yrotation Xrotation
							JOINT LeftHand
							{
								OFFSET 3.75138 -0.00000 -0.00000
								CHANNELS 3 Zrotation Yrotation Xrotation
								JOINT LeftFingerBase
								{
									OFFSET 0 0 0
									CHANNELS 3 Zrotation Yrotation Xrotation
									JOINT LeftHandIndex1
									{
										OFFSET 0.52917 -0.00000 0.00000
										CHANNELS 3 Zrotation Yrotation Xrotation
										End Site
										{
											OFFSET 0.42663 -0.00000 0.00000
										}
									}
								}
								JOINT LThumb
								{
									OFFSET 0 0 0
									CHANNELS 3 Zrotation Yrotation Xrotation
									End Site
									{
										OFFSET 0.43315 -0.00000 0.43315
									}
								}
							}
						}
					}
				}
				JOINT RightShoulder
				{
					OFFSET 0 0 0
					CHANNELS 3 Zrotation Yrotation Xrotation
					JOINT RightArm
					{
						OFFSET -3.07414 1.06285 -0.44338
						CHANNELS 3 Zrotation Yrotation Xrotation
						JOINT RightForeArm
						{
							OFFSET -5.29613 -0.00000 0.00000
							CHANNELS 3 Zrotation Yrotation Xrotation
							JOINT RightHand
							{
								OFFSET -3.76144 -0.00000 -0.00000
								CHANNELS 3 Zrotation Yrotation Xrotation
								JOINT RightFingerBase
								{
									OFFSET 0 0 0
									CHANNELS 3 Zrotation Yrotation Xrotation
									JOINT RightHandIndex1
									{
										OFFSET -0.74732 -0.00000 0.00000
										CHANNELS 3 Zrotation Yrotation Xrotation
										End Site
										{
											OFFSET -0.60251 -0.00000 0.00000
										}
									}
								}
								JOINT RThumb
								{
									OFFSET 0 0 0
									CHANNELS 3 Zrotation Yrotation Xrotation
									End Site
									{
										OFFSET -0.61171 -0.00000 0.61171
									}
								}
							}
						}
					}
				}
			}
		}
	}
}
MOTION
Frames: 6
Frame Time: .0083333
-0.0329 17.2834 9.7798 -5.8981 -6.9094 2.7797 0.0000 0.0000 0.0000 -5.9868 -17.2650 -28.1410 1.3304 7.3042 20.6197 -0.0657 10.5840 -14.0105 0.0329 1.1701 3.2169 0.0000 0.0000 0.0000 30.8119 1.9253 11.8344 -0.3349 -3.7188 10.2869 -0.5284 -0.0993 -13.7714 -0.0013 0.2355 -0.6469 5.5790 2.5344 5.6936 3.1406 3.8676 -0.4112 -0.1997 1.8438 -3.4707 -8.9606 -3.2849 -17.1894 5.2564 -3.3965 22.4033 2.8932 -1.7164 10.2479 0.0000 0.0000 0.0000 -92.9408 7.7715 12.2840 11.8648 -19.6016 -2.0567 -0.0000 -0.0000 13.5607 14.7693 25.2736 6.4221 -7.1250 0.0000 -0.0000 -15.9394 55.2882 -4.1022 0.0000 0.0000 0.0000 82.9855 5.7165 21.7968 -19.8285 30.4351 -5.4442 0.0000 0.0000 2.4907 -14.0324 8.4749 -2.1095 7.1250 -0.0000 -0.0000 9.2653 -21.2935 5.3370
-0.0216 17.2718 9.9256 -6.0054 -7.1331 2.9801 0.0000 0.0000 0.0000 -5.4668 -17.9678 -27.9946 1.2559 7.1046 20.0257 -0.0685 11.0482 -14.6730 0.0194 0.8998 2.4730 0.0000 0.0000 0.0000 30.8611 2.1414 12.1830 -0.3408 -3.7515 10.3786 -0.5394 -0.0514 -13.8973 -0.0152 0.7959 -2.1875 5.6003 2.6025 5.6481 3.1783 3.9651 -0.5331 -0.1810 1.8882 -3.5693 -8.9218 -3.2230 -17.0400 5.1672 -3.3107 22.3681 2.8670 -1.6856 10.1977 -0.0000 0.0000 0.0000 -93.0594 7.6636 11.6384 11.5291 -19.0948 -1.9455 -0.0000 -0.0000 13.9209 15.1686 25.1352 6.5689 -7.1250 0.0000 -0.0000 -15.4622 55.2320 -3.9536 -0.0000 0.0000 0.0000 83.0921 5.7623 21.6160 -19.6919 30.2694 -5.3752 0.0000 0.0000 2.3235 -14.4700 8.6446 -2.2213 7.1250 -0.0000 -0.0000 8.9448 -21.1013 5.1872
-0.0099 17.2636 10.0818 -5.7887 -7.1725 2.9800 0.0000 0.0000 0.0000 -5.6687 -18.1021 -27.7555 1.2114 6.9822 19.6625 -0.0303 10.8540 -14.9897 0.0101 0.6496 1.7851 0.0000 0.0000 0.0000 30.5442 2.0750 12.6175 -0.3546 -3.8259 10.5873 -0.5485 -0.0689 -14.0199 -0.0652 1.6470 -4.5312 5.4057 2.6274 5.6934 3.0730 3.9922 -0.6475 -0.1900 1.8998 -3.7179 -8.9424 -3.2021 -17.0713 5.2837 -3.3091 22.5910 2.9160 -1.6753 10.2859 0.0000 0.0000 0.0000 -93.1008 7.5142 10.6204 11.1558 -18.5266 -1.8251 -0.0000 -0.0000 14.8345 15.3107 24.9438 6.5860 -7.1250 0.0000 -0.0000 -15.2184 55.0730 -3.8297 0.0000 0.0000 0.0000 83.3234 5.6020 21.3257 -19.6988 30.2777 -5.3787 0.0000 0.0000 2.4000 -14.4853 8.8205 -2.2685 7.1250 -0.0000 -0.0000 8.9280 -20.9215 5.2139
0.0056 17.2554 10.2445 -5.6725 -7.1921 2.9665 0.0000 0.0000 0.0000 -6.1062 -17.4722 -27.6225 1.1854 6.9094 19.4473 0.0053 10.1799 -14.5830 0.0021 0.2926 0.8040 0.0000 0.0000 0.0000 30.3179 1.9999 13.1082 -0.3743 -3.9296 10.8788 -0.5523 -0.0945 -14.0767 -0.1580 2.5611 -7.0592 5.3741 2.6418 5.6080 3.0054 4.0007 -0.6604 -0.2388 1.9048 -3.6800 -8.9159 -3.1497 -17.1579 5.3028 -3.2435 22.7270 2.9297 -1.6410 10.3458 -0.0000 -0.0000 0.0000 -93.1355 7.6441 10.6464 11.1702 -18.5486 -1.8297 -0.0000 -0.0000 14.6028 15.3824 25.5565 6.7685 -7.1250 0.0000 -0.0000 -15.4697 55.6841 -4.1271 -0.0000 -0.0000 0.0000 83.5699 5.7262 20.7983 -19.4424 29.9647 -5.2500 0.0000 0.0000 2.4310 -14.5147 9.1449 -2.3562 7.1250 -0.0000 -0.0000 8.8968 -20.5897 5.2626
0.0260 17.2506 10.4030 -5.7649 -7.1551 3.0958 0.0000 0.0000 0.0000 -6.3759 -16.7212 -27.6938 1.1809 6.8969 19.4103 0.0249 9.5284 -13.9938 0.0005 0.1473 0.4048 0.0000 0.0000 0.0000 30.2772 1.9109 13.3756 -0.3952 -4.0364 11.1790 -0.5416 0.0814 -13.8778 -0.2260 3.0601 -8.4460 5.6283 2.6436 5.4022 2.9572 4.0033 -0.6919 -0.4186 1.9025 -3.5765 -8.8165 -3.1633 -17.0794 5.2244 -3.2759 22.6458 2.8791 -1.6566 10.3009 -0.0000 -0.0000 0.0000 -93.0518 7.9849 11.2525 11.3997 -18.8983 -1.9034 -0.0000 -0.0000 14.1258 15.3979 26.1967 6.9319 -7.1250 0.0000 -0.0000 -15.8062 56.3088 -4.4617 -0.0000 -0.0000 0.0000 83.8497 5.8618 20.1655 -19.5241 30.0647 -5.2908 0.0000 0.0000 3.6770 -13.2757 7.2634 -1.7086 7.1250 -0.0000 -0.0000 9.8663 -22.5506 5.4065
0.0452 17.2502 10.5629 -5.6202 -7.0568 3.0644 0.0000 0.0000 0.0000 -7.0538 -15.8395 -27.6934 1.2094 6.9766 19.6460 0.0374 8.7580 -13.1585 0.0002 0.0928 0.2550 0.0000 0.0000 0.0000 30.0065 1.8029 13.7856 -0.4100 -4.1103 11.3871 -0.5111 0.2801 -13.4130 -0.2085 2.9396 -8.1107 5.5482 2.6006 5.3356 2.9321 3.9314 -0.6412 -0.3901 1.8711 -3.4927 -8.8328 -3.2153 -17.3397 5.2029 -3.3153 22.6733 2.8676 -1.6755 10.3638 0.0000 0.0000 0.0000 -93.1415 7.9739 11.0736 11.4288 -18.9426 -1.9128 -0.0000 -0.0000 14.5387 15.1131 26.1351 6.7841 -7.1250 0.0000 -0.0000 -16.0633 56.1918 -4.4910 0.0000 0.0000 0.0000 83.9297 6.1230 19.8240 -19.3527 29.8545 -5.2052 0.0000 0.0000 3.8270 -13.2227 7.2855 -1.7067 7.1250 -0.0000 -0.0000 9.9035 -22.5300 5.4323
